<?xml version="1.0" encoding="UTF-8"?>
<svg version="1.0" xmlns="http://www.w3.org/2000/svg"
 width="423" height="427" viewBox="0 0 423 427"
 preserveAspectRatio="xMidYMid meet">
<g transform="translate(0,427) scale(0.1,-0.1)"
fill="#000000" stroke="none">
<path d="M1838 4153 c-26 -31 -27 -48 -7 -174 10 -68 19 -127 19 -132 0 -4
-36 33 -81 83 -70 78 -85 90 -113 90 -40 0 -66 -26 -66 -66 0 -23 19 -52 87
-128 86 -97 86 -97 -1 -185 -128 -128 -131 -178 -19 -295 150 -157 145 -135
46 -208 -237 -176 -405 -375 -519 -613 -65 -134 -103 -273 -112 -410 -6 -93
-8 -100 -27 -97 -11 2 -92 24 -180 50 -171 49 -240 56 -290 29 -68 -35 -119
-116 -118 -188 0 -25 15 -132 33 -239 41 -247 52 -233 -161 -205 -160 21 -185
21 -209 0 -28 -26 -27 -80 3 -99 12 -8 63 -20 112 -26 121 -15 135 -18 135
-33 0 -8 -51 -42 -114 -77 -86 -47 -118 -70 -126 -91 -16 -38 -4 -68 33 -84
36 -15 46 -11 227 90 95 53 95 53 251 57 172 4 192 10 229 71 24 39 25 73 5
168 -9 40 -13 74 -11 77 3 2 53 -39 111 -91 74 -66 125 -122 166 -183 85 -124
233 -299 375 -440 430 -430 878 -676 1284 -703 188 -13 466 19 650 75 357 108
586 321 657 611 22 91 22 273 -1 378 -22 101 -36 129 -63 133 -25 4 -25 4 -43
-121 -44 -296 -229 -529 -502 -631 -171 -64 -456 -90 -638 -57 -342 61 -638
254 -866 566 -54 75 -109 164 -103 169 6 5 153 102 164 108 7 5 8 -17 1 -68
-7 -53 -6 -81 2 -99 13 -29 74 -59 101 -50 12 3 53 -28 139 -105 114 -103 133
-115 172 -111 22 3 50 40 50 66 0 22 -31 55 -174 187 -47 43 -49 46 -29 57 17
8 48 5 144 -14 155 -32 172 -32 198 1 50 64 13 97 -140 126 -63 12 -115 22
-116 23 -2 1 7 64 18 141 23 154 22 281 -4 330 -51 98 -150 124 -327 85 -47
-11 -86 -18 -87 -17 -4 4 330 306 337 306 4 0 56 -32 116 -71 60 -39 142 -87
182 -106 72 -34 72 -34 72 -158 0 -117 1 -125 22 -139 31 -22 71 -20 94 5 15
17 19 40 23 131 3 110 3 110 60 56 132 -127 162 -141 200 -92 32 41 26 65 -29
119 -59 58 -55 63 57 64 65 1 73 3 92 27 26 33 26 55 2 85 -19 23 -23 24 -156
21 -93 -3 -135 0 -131 7 4 5 41 35 84 64 95 67 115 89 115 124 0 31 -34 63
-68 63 -12 0 -65 -30 -116 -66 -52 -37 -104 -73 -116 -81 -21 -14 -29 -10
-148 87 -125 102 -125 102 -107 132 43 73 147 200 229 278 109 105 191 154
292 175 208 44 432 141 633 273 136 90 251 198 274 257 16 42 16 45 -6 89 -12
25 -45 67 -73 92 -58 53 -188 140 -258 174 -30 15 -52 34 -62 54 -34 71 -95
134 -164 168 -62 30 -75 33 -163 33 -83 0 -103 -4 -155 -28 -33 -16 -69 -36
-80 -46 -14 -13 -44 -20 -105 -25 -111 -8 -178 -26 -275 -76 -158 -80 -327
-259 -423 -447 -22 -42 -22 -42 -164 16 -143 57 -143 57 -146 107 -3 50 -3 50
149 76 83 14 157 32 165 40 7 7 16 25 19 40 5 21 1 33 -20 54 -24 24 -32 26
-76 20 -171 -22 -163 -28 -76 61 62 65 77 87 77 111 0 21 -7 36 -22 46 -40 28
-69 20 -124 -35 -57 -56 -50 -66 -79 120 -4 24 -16 52 -26 62 -24 24 -71 25
-91 2z m1520 -288 c77 -33 121 -102 122 -191 0 -62 -18 -110 -57 -146 -101
-97 -266 -68 -324 57 -22 48 -25 133 -5 178 39 92 168 142 264 102z M3239
3719 c-47 -47 6 -128 67 -100 45 20 44 89 -2 109 -34 16 -41 15 -65 -9z"/>
</g>
</svg>
